<?xml version="1.0" standalone="no"?>
<!DOCTYPE svg PUBLIC "-//W3C//DTD SVG 20010904//EN"
 "http://www.w3.org/TR/2001/REC-SVG-20010904/DTD/svg10.dtd">
<svg version="1.0" xmlns="http://www.w3.org/2000/svg"
 width="256.000000pt" height="256.000000pt" viewBox="0 0 256.000000 256.000000"
 preserveAspectRatio="xMidYMid meet">
<metadata>
Created by potrace 1.11, written by Peter Selinger 2001-2013
</metadata>
<g transform="translate(0.000000,256.000000) scale(0.100000,-0.100000)"
fill="#000000" stroke="none">
<path d="M965 1879 c-165 -60 -313 -115 -330 -123 l-30 -13 0 -457 c1 -275 5
-459 10 -465 6 -4 44 -20 85 -34 71 -24 133 -46 420 -150 69 -25 134 -48 145
-51 11 -3 51 6 90 20 39 14 99 36 135 49 172 61 435 157 449 165 14 7 16 57
16 463 0 251 -3 458 -7 462 -3 3 -93 38 -200 76 -106 39 -202 74 -213 79 -38
18 -247 90 -258 90 -7 -1 -147 -50 -312 -111z m625 -53 c129 -48 242 -89 250
-92 8 -3 -114 -53 -272 -110 l-287 -105 -281 102 c-154 56 -280 104 -280 108
0 3 93 40 206 81 379 138 352 130 393 115 20 -7 142 -52 271 -99z m-660 -236
c107 -39 223 -81 258 -93 l62 -21 0 -418 0 -418 -32 15 c-18 8 -148 55 -288
106 -140 50 -259 93 -265 95 -8 3 -13 689 -6 816 1 16 5 16 39 3 20 -7 125
-45 232 -85z m973 -312 c0 -221 -2 -406 -2 -411 -1 -10 -11 -14 -286 -113
-132 -47 -255 -92 -272 -99 l-33 -14 0 417 0 417 293 106 c160 58 294 105 297
103 3 -1 4 -184 3 -406z"/>
</g>
</svg>
