<?xml version="1.0" standalone="no"?>
<!DOCTYPE svg PUBLIC "-//W3C//DTD SVG 20010904//EN"
 "http://www.w3.org/TR/2001/REC-SVG-20010904/DTD/svg10.dtd">
<svg version="1.0" xmlns="http://www.w3.org/2000/svg"
 width="400.000000pt" height="400.000000pt" viewBox="0 0 400.000000 400.000000"
 preserveAspectRatio="xMidYMid meet">
<metadata>
Created by potrace 1.11, written by Peter Selinger 2001-2013
</metadata>
<g transform="translate(0.000000,400.000000) scale(0.100000,-0.100000)"
fill="#000000" stroke="none">
<path d="M1450 3536 c-41 -13 -88 -31 -105 -39 -16 -9 -86 -30 -155 -47 -156
-40 -221 -64 -357 -134 -114 -58 -213 -135 -213 -165 0 -10 22 -65 49 -122 53
-114 91 -224 115 -337 13 -57 16 -132 16 -355 -1 -163 3 -299 9 -322 6 -22 11
-56 11 -75 0 -20 7 -45 15 -56 8 -12 32 -62 54 -113 22 -50 55 -117 75 -149
37 -61 56 -126 81 -272 22 -129 19 -190 -15 -296 -16 -52 -33 -120 -36 -151
-12 -107 -112 -263 -261 -404 -222 -210 -314 -305 -384 -392 -44 -54 -79 -100
-79 -103 0 -2 597 -4 1326 -4 l1326 0 -24 32 c-81 108 -124 234 -108 316 18
87 23 101 37 106 9 4 53 32 100 62 96 64 199 161 263 249 53 72 147 235 166
289 8 22 19 45 24 51 6 7 12 25 14 41 2 16 26 122 55 235 44 180 51 219 51
310 1 136 -15 394 -30 489 -68 437 -282 873 -548 1118 -99 90 -255 189 -362
228 -55 20 -347 32 -755 33 -264 0 -284 -2 -355 -23z m1150 -1016 c19 -5 82
-17 140 -26 67 -11 123 -27 155 -43 28 -15 91 -43 140 -64 77 -32 102 -49 172
-117 44 -43 84 -89 88 -102 4 -13 16 -42 26 -65 14 -30 18 -62 17 -115 -1 -64
2 -79 25 -113 39 -59 50 -124 42 -245 -5 -77 -12 -113 -26 -136 -10 -17 -19
-41 -19 -53 0 -12 -13 -40 -30 -63 -16 -22 -30 -48 -30 -55 0 -8 -9 -28 -20
-43 -11 -16 -30 -50 -43 -77 -12 -26 -35 -65 -52 -85 -30 -37 -53 -118 -54
-189 -1 -30 -11 -45 -67 -100 -36 -35 -74 -81 -85 -102 -13 -25 -35 -45 -67
-61 -26 -13 -73 -38 -105 -55 -53 -28 -67 -31 -145 -31 l-87 1 27 19 c24 19
27 28 33 115 6 70 4 99 -5 110 -10 12 -10 21 1 46 11 28 10 33 -6 45 -10 8
-40 14 -67 14 -38 0 -50 -4 -59 -21 -8 -16 -8 -27 2 -46 11 -20 11 -28 0 -45
-20 -33 4 -197 32 -220 21 -17 20 -18 -46 -18 -108 0 -282 70 -353 143 -64 67
-177 170 -212 193 -49 33 -236 208 -268 250 -22 28 -24 36 -13 56 13 25 26 72
35 133 4 22 17 83 30 135 14 52 26 106 29 120 2 14 11 44 19 68 9 24 18 66 21
95 34 314 172 558 389 685 109 65 105 63 236 71 115 7 134 6 200 -9z m-316
-1948 c71 -33 119 -41 229 -42 65 0 97 -4 97 -11 0 -13 -344 -5 -394 9 -36 10
-44 28 -16 35 11 3 20 13 20 22 0 9 3 15 8 13 4 -2 29 -14 56 -26z"/>
<path d="M2058 2209 c-66 -9 -138 -43 -138 -65 0 -23 22 -26 69 -9 24 8 67 15
95 14 47 -1 48 -2 20 -10 -42 -12 -65 -40 -70 -86 -6 -47 11 -81 54 -106 29
-17 39 -18 73 -8 27 8 46 23 59 44 25 41 25 73 0 115 -11 17 -18 32 -16 32 25
0 91 -42 128 -82 50 -54 78 -59 78 -14 0 30 -102 119 -175 151 -62 28 -104 34
-177 24z"/>
<path d="M2975 2201 c-56 -16 -82 -29 -114 -61 -47 -48 -65 -88 -52 -116 15
-34 40 -30 56 9 15 37 46 67 95 93 33 18 122 23 225 12 24 -2 30 1 30 17 0 14
-11 22 -42 31 -57 17 -162 25 -198 15z"/>
<path d="M2975 2107 c-20 -17 -28 -35 -32 -70 -5 -43 -3 -49 31 -83 33 -33 40
-36 77 -31 48 6 74 28 89 73 14 41 6 70 -28 107 -34 36 -98 38 -137 4z"/>
<path d="M2692 1978 c-22 -22 -13 -80 44 -283 68 -241 88 -325 80 -332 -3 -3
-102 0 -220 6 -232 11 -261 8 -272 -33 -9 -35 11 -64 49 -70 75 -12 509 -30
539 -23 48 12 51 47 19 170 -99 375 -152 553 -168 565 -21 15 -55 16 -71 0z"/>
<path d="M1995 1285 c-29 -28 -32 -53 -8 -62 11 -4 22 1 31 15 8 12 20 22 27
22 7 0 47 -33 87 -74 81 -80 115 -96 203 -95 28 0 64 8 81 17 17 9 50 27 72
40 59 32 85 28 158 -24 l65 -46 107 3 c127 5 164 21 202 90 14 25 33 56 42 69
17 23 18 23 31 5 16 -21 47 -15 47 10 0 21 -36 55 -58 55 -27 0 -60 -28 -81
-68 -30 -58 -51 -72 -123 -79 -86 -8 -186 11 -264 49 l-63 30 -76 -41 c-50
-27 -89 -41 -113 -41 -53 0 -134 42 -196 100 -48 45 -57 50 -100 50 -36 0 -52
-5 -71 -25z"/>
<path d="M2289 1072 c-58 -7 -77 -76 -29 -102 11 -6 160 -15 351 -21 309 -10
332 -10 350 7 22 19 25 66 7 82 -21 17 -72 21 -362 27 -154 4 -282 7 -285 8
-4 2 -18 1 -32 -1z"/>
</g>
</svg>
